<svg width="90" height="90" viewBox="0 0 90 90" fill="none" xmlns="http://www.w3.org/2000/svg">
<mask id="mask0_274_126" style="mask-type:luminance" maskUnits="userSpaceOnUse" x="7" y="6" width="78" height="28">
<path d="M7.70996 6.59998H84.57V33.12H7.70996V6.59998Z" fill="white"/>
</mask>
<g mask="url(#mask0_274_126)">
<path d="M84.57 32.8959H83.16V8.00998H9.11996V32.8959H7.70996V6.59998H84.57V32.8959Z" fill="#CEA970"/>
</g>
<mask id="mask1_274_126" style="mask-type:luminance" maskUnits="userSpaceOnUse" x="7" y="54" width="78" height="30">
<path d="M7.70996 54.72H84.57V83.46H7.70996V54.72Z" fill="white"/>
</mask>
<g mask="url(#mask1_274_126)">
<path d="M84.57 83.46H7.70996V54.9581H9.11996V82.05H83.16V54.9581H84.57V83.46Z" fill="#CEA970"/>
</g>
<path d="M73.9296 63.5371C71.7658 47.954 70.1065 32.8761 68.808 17.0043H68.6637C61.5208 31.0724 54.1624 44.563 45.8655 58.9921C36.7755 43.9143 29.3449 30.5671 22.1308 17.0043H21.9865C20.7593 32.2986 19.1008 48.0262 16.864 63.2483C16.2865 67.5046 14.6993 68.6596 10.5874 69.2362V69.6693C14.0505 69.3805 15.9977 69.3083 18.5955 69.3083C21.2646 69.3083 22.7796 69.3805 26.3149 69.6693V69.2362C22.1308 68.5152 20.6871 67.5046 21.048 63.2483C21.7699 53.5808 22.7074 44.4187 24.0058 34.5355C31.0043 46.439 37.714 58.4868 43.8462 70.2468H43.9896C50.1227 58.2702 56.4705 46.439 63.2524 34.319C64.5508 43.9855 65.5615 53.5808 66.2102 63.4649C66.499 67.5768 64.4065 68.6596 60.7277 69.2362V69.6693C64.3343 69.3805 67.5808 69.3083 70.3952 69.3083C73.713 69.3083 76.8152 69.3805 80.4227 69.6693V69.2362C76.5274 68.5874 74.4349 67.5046 73.9296 63.5371Z" fill="#CEA970"/>
<path d="M36.7269 28.4053C35.959 26.6278 35.314 25.3031 34.7919 24.4303C34.2715 23.5556 33.7278 22.9191 33.1606 22.5216C32.5953 22.1222 31.8528 21.8447 30.9331 21.6891V20.9091H42.3369V21.8278H34.7019C36.0519 22.1353 37.1862 22.7494 38.1069 23.6691C39.0265 24.5897 39.8694 25.9378 40.6344 27.7153L48.3144 45.6516L46.6606 49.6978H45.7419L36.7269 28.4053ZM51.2131 35.6241C52.5631 32.0391 53.4978 29.4197 54.0181 27.7641C54.5403 26.1066 54.8019 24.8494 54.8019 23.9916C54.8019 23.4094 54.6706 22.9641 54.4081 22.6566C54.1475 22.3491 53.7725 22.1344 53.2831 22.0116C52.7928 21.8897 52.0728 21.7819 51.1231 21.6891V20.9091H61.2856V21.6891C60.5806 21.7819 59.959 21.9591 59.4219 22.2216C58.8865 22.4822 58.3503 22.9416 57.8131 23.6016C57.275 24.2597 56.7462 25.2019 56.2269 26.4291L52.1806 35.9953L51.2131 35.6241Z" fill="#CEA970"/>
</svg>
